<?xml version="1.0" standalone="no"?><!-- Generator: Gravit.io --><svg xmlns="http://www.w3.org/2000/svg" xmlns:xlink="http://www.w3.org/1999/xlink" style="isolation:isolate" viewBox="0 0 50 50" width="50" height="50"><defs><clipPath id="_clipPath_lLjOf6aGcBy0xa5cd0znsiIgrRWf0zz9"><rect width="50" height="50"/></clipPath></defs><g clip-path="url(#_clipPath_lLjOf6aGcBy0xa5cd0znsiIgrRWf0zz9)"><path d=" M 0 9.85 Q 0 0 9.85 0 L 40.15 0 Q 43.6 0 45.8 1.2 Q 50 3.45 50 9.85 L 50 40.55 Q 49.9 46.65 45.8 48.85 Q 43.6 50 40.15 50 L 9.85 50 Q 0.2 50 0 40.55 L 0 9.85 Z " fill="rgb(128,190,31)"/><path d=" M 17.15 19.45 Q 18.25 20.55 18.25 22.05 Q 18.25 23.5 17.15 24.6 Q 16.1 25.65 14.6 25.65 Q 13.1 25.65 12.05 24.6 Q 10.95 23.5 10.95 22.05 Q 10.95 20.55 12.05 19.45 Q 13.1 18.4 14.6 18.4 Q 16.1 18.4 17.15 19.45 Z  M 34.6 18.4 Q 36.1 18.4 37.15 19.45 Q 38.25 20.55 38.25 22.05 Q 38.25 23.5 37.15 24.6 Q 36.1 25.65 34.6 25.65 Q 33.1 25.65 32.05 24.6 Q 30.95 23.5 30.95 22.05 Q 30.95 20.55 32.05 19.45 Q 33.1 18.4 34.6 18.4 Z " fill="rgb(95,140,25)"/><path d=" M 16 31 Q 16 30.2 16.6 29.6 Q 17.2 29 18 29 L 32 29 Q 32.8 29 33.4 29.6 Q 34 30.2 34 31 Q 34 31.8 33.4 32.4 Q 32.8 33 32 33 L 18 33 Q 17.2 33 16.6 32.4 Q 16 31.8 16 31 Z " fill="rgb(95,140,25)"/><path d=" M 23.7 8.8 Q 25.1 8.8 26.1 9.8 Q 27.1 10.8 27.1 12.2 Q 27.1 13.6 26.1 14.6 Q 25.1 15.6 23.7 15.6 Q 22.3 15.6 21.3 14.6 Q 20.3 13.6 20.3 12.2 Q 20.3 10.8 21.3 9.8 Q 22.3 8.8 23.7 8.8 Z  M 10.35 6.1 Q 12.05 6.1 13.2 7.25 Q 14.4 8.45 14.4 10.15 Q 14.4 11.85 13.2 13 Q 12.05 14.2 10.35 14.2 Q 8.65 14.2 7.45 13 Q 6.3 11.85 6.3 10.15 Q 6.3 8.45 7.45 7.25 Q 8.65 6.1 10.35 6.1 Z  M 41.75 35.1 Q 42.85 36.2 42.85 37.7 Q 42.85 39.2 41.75 40.25 Q 40.7 41.35 39.2 41.35 Q 37.7 41.35 36.6 40.25 Q 35.55 39.2 35.55 37.7 Q 35.55 36.2 36.6 35.1 Q 37.7 34.05 39.2 34.05 Q 40.7 34.05 41.75 35.1 Z  M 33.7 41.5 Q 33.7 42.6 32.9 43.4 Q 32.1 44.2 31 44.2 Q 29.9 44.2 29.1 43.4 Q 28.3 42.6 28.3 41.5 Q 28.3 40.4 29.1 39.6 Q 29.9 38.8 31 38.8 Q 32.1 38.8 32.9 39.6 Q 33.7 40.4 33.7 41.5 Z " fill="rgb(136,198,38)"/></g></svg>