<?xml version="1.0" standalone="no"?><!-- Generator: Gravit.io --><svg xmlns="http://www.w3.org/2000/svg" xmlns:xlink="http://www.w3.org/1999/xlink" style="isolation:isolate" viewBox="0 0 62 62" width="62" height="62"><defs><clipPath id="_clipPath_gkrI9QgOigE6q4XE7SVuBFJgJpQgxBbY"><rect width="62" height="62"/></clipPath></defs><g clip-path="url(#_clipPath_gkrI9QgOigE6q4XE7SVuBFJgJpQgxBbY)"><path d=" M 3.3 19.4 Q 2.9 17.75 3.7 16.35 L 4.7 14.65 Q 5.5 13.2 7.1 12.8 Q 8.15 12.55 9.1 12.8 L 10.85 10.85 L 12.85 9.05 Q 12.6 8.1 12.85 7.05 Q 13.3 5.45 14.7 4.6 L 16.4 3.65 Q 17.85 2.8 19.45 3.25 Q 20.45 3.55 21.15 4.2 Q 23.55 3.3 26.2 2.9 Q 26.45 1.9 27.2 1.15 Q 28.4 0 30.05 0 L 32 0 Q 33.65 0 34.8 1.15 Q 35.55 1.9 35.85 2.9 Q 38.5 3.3 41 4.25 Q 41.65 3.55 42.65 3.25 Q 44.3 2.85 45.7 3.7 L 47.4 4.65 Q 48.85 5.5 49.25 7.05 Q 49.5 8.1 49.3 9.1 L 51.15 10.85 L 52.95 12.8 L 55 12.75 Q 56.6 13.25 57.45 14.65 L 58.4 16.35 Q 59.25 17.8 58.8 19.35 Q 58.5 20.4 57.8 21.1 Q 58.7 23.55 59.15 26.2 Q 60.1 26.45 60.85 27.2 Q 62 28.4 62 30.05 L 62 32 Q 62 33.65 60.85 34.8 Q 60.1 35.55 59.15 35.85 Q 58.7 38.45 57.85 40.9 Q 58.5 41.6 58.75 42.6 Q 59.2 44.2 58.4 45.65 L 57.4 47.35 Q 56.6 48.75 54.95 49.2 L 52.95 49.25 L 51.15 51.15 L 49.3 52.9 Q 49.55 53.85 49.25 54.9 Q 48.85 56.5 47.4 57.35 L 45.7 58.3 Q 44.3 59.15 42.65 58.7 L 41.05 57.8 L 35.85 59.15 L 34.8 60.8 Q 33.65 62 32 62 L 30.05 62 Q 28.4 62 27.2 60.8 Q 26.45 60.05 26.2 59.15 Q 23.55 58.7 21.1 57.85 Q 20.4 58.45 19.45 58.7 Q 17.85 59.2 16.4 58.35 L 14.7 57.4 Q 13.3 56.55 12.85 54.9 Q 12.55 53.9 12.8 52.95 L 10.85 51.15 L 9.1 49.25 L 7.15 49.2 Q 5.55 48.8 4.7 47.35 L 3.75 45.65 Q 2.9 44.25 3.35 42.6 Q 3.6 41.65 4.25 41 Q 3.3 38.5 2.9 35.85 Q 1.95 35.55 1.2 34.8 Q 0 33.65 0 32 L 0 30.05 Q 0 28.4 1.2 27.2 Q 1.95 26.45 2.9 26.2 Q 3.3 23.55 4.2 21.05 Q 3.55 20.4 3.3 19.4 Z  M 47.1 14.85 Q 40.45 8.2 31 8.2 Q 21.55 8.2 14.85 14.85 Q 8.2 21.55 8.2 31 Q 8.2 40.45 14.85 47.1 Q 21.55 53.8 31 53.8 Q 40.45 53.8 47.1 47.1 Q 53.8 40.45 53.8 31 Q 53.8 21.55 47.1 14.85 Z " fill="rgb(187,203,204)"/><path d=" M 47.1 14.85 Q 53.8 21.55 53.8 31 Q 53.8 40.45 47.1 47.1 Q 40.45 53.8 31 53.8 Q 21.55 53.8 14.85 47.1 Q 8.2 40.45 8.2 31 Q 8.2 21.55 14.85 14.85 Q 21.55 8.2 31 8.2 Q 40.45 8.2 47.1 14.85 Z " fill="rgb(135,164,166)"/><path d=" M 38.45 28.45 Q 39.5 27.4 41 27.4 Q 42.5 27.4 43.55 28.45 Q 44.65 29.55 44.65 31.05 Q 44.65 32.5 43.55 33.6 Q 42.5 34.65 41 34.65 Q 39.5 34.65 38.45 33.6 Q 37.35 32.5 37.35 31.05 Q 37.35 29.55 38.45 28.45 Z  M 21 27.4 Q 22.5 27.4 23.55 28.45 Q 24.65 29.55 24.65 31.05 Q 24.65 32.5 23.55 33.6 Q 22.5 34.65 21 34.65 Q 19.5 34.65 18.45 33.6 Q 17.35 32.5 17.35 31.05 Q 17.35 29.55 18.45 28.45 Q 19.5 27.4 21 27.4 Z " fill="rgb(100,122,123)"/></g></svg>