<?xml version="1.0" standalone="no"?><!-- Generator: Gravit.io --><svg xmlns="http://www.w3.org/2000/svg" xmlns:xlink="http://www.w3.org/1999/xlink" style="isolation:isolate" viewBox="0 0 1080 720" width="1080" height="720"><defs><clipPath id="_clipPath_ZbwGakTROxLnXPJadOkIHi8OX0Sfkt5i"><rect width="1080" height="720"/></clipPath></defs><g clip-path="url(#_clipPath_ZbwGakTROxLnXPJadOkIHi8OX0Sfkt5i)"><clipPath id="_clipPath_MrXSwDjG2tGdWkuLxt10L3F6y78v8AnZ"><rect x="0" y="0" width="1080" height="719.999" transform="matrix(1,0,0,1,0,0)" fill="rgb(255,255,255)"/></clipPath><g clip-path="url(#_clipPath_MrXSwDjG2tGdWkuLxt10L3F6y78v8AnZ)"><g id="Group"><path d=" M 0 719.999 L 0 0 L 1080 0 L 1080 719.999 L 0 719.999 Z " fill="rgb(213,247,244)"/><path d=" M 0 551.249 L 0 317.399 Q 7.222 313.349 16.132 313.349 Q 24.908 313.349 32.198 317.324 Q 49.342 308.849 69.863 308.849 L 71.617 308.849 Q 73.508 298.724 81 290.999 Q 91.057 280.574 105.368 280.574 Q 115.628 280.574 123.66 285.899 Q 127.575 280.499 132.368 275.549 Q 143.572 263.924 156.803 257.4 Q 157.545 252.9 159.368 248.925 Q 156.87 243.3 156.397 236.925 L 156.263 233.925 L 156.33 232.35 Q 156.803 218.55 166.32 208.725 Q 176.445 198.3 190.687 198.3 L 198.18 199.125 Q 204.593 184.35 216.54 172.05 Q 242.325 145.35 278.91 145.35 Q 300.105 145.35 317.723 154.35 Q 325.687 149.1 335.88 149.1 Q 350.19 149.1 360.248 159.525 Q 369.36 168.9 370.305 181.8 L 379.417 180.6 Q 393.727 180.6 403.785 191.025 Q 408.78 196.125 411.277 202.35 Q 447.66 202.425 473.445 229.05 Q 481.68 237.6 487.283 247.275 L 487.958 246.525 Q 498.015 236.1 512.325 236.1 Q 526.635 236.1 536.692 246.525 Q 543.51 253.575 545.738 262.574 L 551.813 262.349 Q 561.465 262.349 570.375 264.224 Q 572.4 254.25 579.758 246.675 Q 589.815 236.25 604.125 236.25 Q 616.14 236.25 625.117 243.525 Q 642.667 227.025 665.01 222.3 Q 667.238 213.15 674.123 206.025 Q 684.18 195.6 698.49 195.6 Q 712.8 195.6 722.858 206.025 Q 729.203 212.55 731.565 220.875 L 737.64 220.35 Q 751.883 220.35 762.008 230.775 Q 771.66 240.75 772.065 254.7 L 772.065 255.974 L 772.065 256.799 L 771.997 259.2 L 771.93 259.799 L 771.997 259.799 Q 778.815 256.349 786.983 256.349 Q 801.292 256.349 811.35 266.774 L 812.363 267.899 L 826.133 266.849 Q 861.03 266.849 886.072 291.074 L 888.84 287.774 Q 898.965 277.349 913.275 277.349 Q 927.585 277.349 937.642 287.774 Q 943.245 293.549 945.742 300.749 Q 955.8 296.324 967.005 294.749 Q 968.962 280.274 978.75 269.399 Q 985.77 261.599 994.41 258.299 Q 1000.89 255.825 1008.247 255.825 Q 1025.528 255.825 1037.745 269.399 Q 1040.715 272.699 1043.01 276.374 Q 1057.253 277.949 1067.783 289.649 Q 1079.595 302.774 1080 321.224 L 1080 667.949 L 1079.933 667.949 L 1079.933 551.324 L 1057.117 551.324 L 1042.267 580.124 L 1017.967 572.474 L 1002.375 494.324 L 979.762 480.824 L 962.415 368.024 L 940.747 368.024 L 911.25 507.824 L 896.467 512.624 L 871.695 637.049 L 840.308 637.049 L 833.085 600.374 L 821.812 594.599 L 811.417 551.249 L 777.6 551.249 L 752.422 599.474 L 735.885 599.474 L 705.51 663.074 L 676.012 663.074 L 665.617 629.324 L 601.358 593.624 L 597.915 541.574 L 583.133 534.824 L 567.54 314.999 L 551.07 314.999 L 528.458 427.799 L 514.62 439.349 L 501.592 517.499 L 491.13 517.499 L 459.067 647.624 L 421.74 641.849 L 391.365 582.074 L 377.46 582.074 L 349.717 450.899 L 300.24 450.899 L 280.327 532.874 L 265.545 532.874 L 241.245 580.124 L 216.945 572.474 L 201.352 494.324 L 178.74 480.824 L 161.393 368.024 L 139.725 368.024 L 110.228 507.824 L 95.445 512.624 L 70.672 637.049 L 39.285 637.049 L 32.063 600.374 L 20.79 594.599 L 10.395 551.249 L 0 551.249 Z " fill="rgb(234,250,249)"/><path d=" M 0 551.249 L 10.395 551.249 L 20.79 594.599 L 32.063 600.374 L 39.285 637.049 L 70.672 637.049 L 95.445 512.624 L 110.228 507.824 L 139.725 368.024 L 161.393 368.024 L 178.74 480.824 L 201.352 494.324 L 216.945 572.474 L 241.245 580.124 L 265.545 532.874 L 280.327 532.874 L 300.24 450.899 L 349.717 450.899 L 377.46 582.074 L 391.365 582.074 L 421.74 641.849 L 459.067 647.624 L 491.13 517.499 L 501.592 517.499 L 514.62 439.349 L 528.458 427.799 L 551.07 314.999 L 567.54 314.999 L 583.133 534.824 L 597.915 541.574 L 601.358 593.624 L 665.617 629.324 L 676.012 663.074 L 705.51 663.074 L 735.885 599.474 L 752.422 599.474 L 777.6 551.249 L 811.417 551.249 L 821.812 594.599 L 833.085 600.374 L 840.308 637.049 L 871.695 637.049 L 896.467 512.624 L 911.25 507.824 L 940.747 368.024 L 962.415 368.024 L 979.762 480.824 L 1002.375 494.324 L 1017.967 572.474 L 1042.267 580.124 L 1057.117 551.324 L 1079.933 551.324 L 1079.933 667.949 L 1079.933 719.999 L 0 719.999 L 0 551.249 Z " fill="rgb(199,204,203)"/></g></g><g id="Group"><path d=" M 1080 670.501 L 1080 680.965 L 1014.145 659.518 L 987.429 622.041 L 881.9 629.091 L 855.518 661.744 L 795.072 672.505 L 767.688 703.674 L 716.327 705.529 L 679.926 688.46 L 627.161 692.171 L 579.072 640.594 L 501.929 638.739 L 471.874 668.423 L 413.098 664.713 L 331.614 632.06 L 205.38 643.562 L 182.004 670.278 L 119.221 692.913 L 53.432 684.007 L 42.412 672.95 L 0 681.113 L 0 670.575 L 43.481 666.79 L 53.766 678.219 L 120.69 683.785 L 180.534 666.048 L 210.456 628.349 L 331.213 622.783 L 412.03 657.143 L 466.931 657.143 L 499.859 634.954 L 582.679 634.954 L 627.629 682.672 L 679.525 682.672 L 713.455 698.182 L 765.351 698.182 L 800.282 657.143 L 851.176 651.577 L 880.096 621.67 L 992.905 617.217 L 1018.82 654.917 L 1080 670.501 Z  M 988.297 653.952 L 998.048 651.503 L 1005.596 667.755 L 997.781 674.212 L 989.766 667.755 L 988.297 653.952 Z  M 1023.495 678.664 L 1016.883 685.418 L 1005.929 683.562 L 1002.323 678.442 L 1010.338 671.614 L 1022.494 671.614 L 1023.495 678.664 Z  M 251.8 681.41 L 243.785 687.866 L 235.97 681.41 L 243.518 665.158 L 253.269 667.607 L 251.8 681.41 Z  M 218.738 653.136 L 233.098 653.136 L 235.97 665.009 L 227.955 680.668 L 217.469 680.668 L 209.722 666.123 L 218.738 653.136 Z  M 219.072 689.722 L 231.228 689.722 L 239.243 696.549 L 235.636 701.67 L 224.683 703.525 L 218.071 696.772 L 219.072 689.722 Z " fill="rgb(162,162,162)"/><path d=" M 0 670.575 L 0 667.384 L 44.816 664.045 L 54.968 675.325 L 120.49 680.816 L 179.065 663.451 L 208.453 626.419 L 209.321 625.677 L 210.39 625.381 L 331.147 619.815 L 332.215 620.037 L 412.564 654.175 L 466.263 654.175 L 498.523 632.431 Q 499.124 631.985 499.859 631.985 L 582.679 631.985 Q 583.748 631.985 584.549 632.802 L 628.698 679.703 L 679.525 679.703 L 680.527 679.926 L 713.989 695.213 L 764.215 695.213 L 798.345 655.139 Q 799.013 654.323 800.015 654.175 L 850.041 648.757 L 878.293 619.518 Q 879.028 618.701 880.03 618.701 L 992.839 614.249 L 994.041 614.546 Q 994.642 614.843 995.043 615.436 L 1020.423 652.319 L 1080 667.458 L 1080 670.501 L 1018.82 654.917 L 992.905 617.217 L 880.096 621.67 L 851.176 651.577 L 800.282 657.143 L 765.351 698.182 L 713.455 698.182 L 679.525 682.672 L 627.629 682.672 L 582.679 634.954 L 499.859 634.954 L 466.931 657.143 L 412.03 657.143 L 331.213 622.783 L 210.456 628.349 L 180.534 666.048 L 120.69 683.785 L 53.766 678.219 L 43.481 666.79 L 0 670.575 Z " fill="rgb(101,105,119)"/><path d=" M 1080 680.965 L 1080 720 L 0 720 L 0 681.113 L 42.412 672.95 L 53.432 684.007 L 119.221 692.913 L 182.004 670.278 L 205.38 643.562 L 331.614 632.06 L 413.098 664.713 L 471.874 668.423 L 501.929 638.739 L 579.072 640.594 L 627.161 692.171 L 679.926 688.46 L 716.327 705.529 L 767.688 703.674 L 795.072 672.505 L 855.518 661.744 L 881.9 629.091 L 987.429 622.041 L 1014.145 659.518 L 1080 680.965 Z  M 1023.495 678.664 L 1022.494 671.614 L 1010.338 671.614 L 1002.323 678.442 L 1005.929 683.562 L 1016.883 685.418 L 1023.495 678.664 Z  M 988.297 653.952 L 989.766 667.755 L 997.781 674.212 L 1005.596 667.755 L 998.048 651.503 L 988.297 653.952 Z  M 219.072 689.722 L 218.071 696.772 L 224.683 703.525 L 235.636 701.67 L 239.243 696.549 L 231.228 689.722 L 219.072 689.722 Z  M 218.738 653.136 L 209.722 666.123 L 217.469 680.668 L 227.955 680.668 L 235.97 665.009 L 233.098 653.136 L 218.738 653.136 Z  M 251.8 681.41 L 253.269 667.607 L 243.518 665.158 L 235.97 681.41 L 243.785 687.866 L 251.8 681.41 Z " fill="rgb(136,135,135)"/></g></g></svg>