<?xml version="1.0" standalone="no"?><!-- Generator: Gravit.io --><svg xmlns="http://www.w3.org/2000/svg" xmlns:xlink="http://www.w3.org/1999/xlink" style="isolation:isolate" viewBox="0 0 32 32" width="32" height="32"><defs><clipPath id="_clipPath_3sDQWwM9ZwRlvk52JXlKgu1IQvGaLjsM"><rect width="32" height="32"/></clipPath></defs><g clip-path="url(#_clipPath_3sDQWwM9ZwRlvk52JXlKgu1IQvGaLjsM)"><path d=" M 30 0 Q 30.8 0 31.4 0.6 Q 32 1.2 32 2 L 32 8 L 24 16 L 32 24 L 32 30 Q 32 30.85 31.4 31.45 Q 30.8 32 30 32 L 24 32 L 16 24 L 8 32 L 2 32 Q 1.15 32 0.55 31.45 Q 0 30.85 0 30 L 0 24 L 8 16 L 0 8 L 0 2.05 Q 0 1.2 0.55 0.6 Q 1.15 0 2 0 L 8 0 L 16 8 L 24 0 L 30 0 Z " fill="rgb(0,0,0)"/></g></svg>