<?xml version="1.0" standalone="no"?><!-- Generator: Gravit.io --><svg xmlns="http://www.w3.org/2000/svg" xmlns:xlink="http://www.w3.org/1999/xlink" style="isolation:isolate" viewBox="0 0 18 34" width="18" height="34"><defs><clipPath id="_clipPath_7ID3w0Azo6pNgIWBfNiPLwiqlo98kINX"><rect width="18" height="34"/></clipPath></defs><g clip-path="url(#_clipPath_7ID3w0Azo6pNgIWBfNiPLwiqlo98kINX)"><path d=" M 5.45 8.55 Q 4 7.05 4 5 Q 4 2.95 5.45 1.5 Q 6.95 0 9 0 Q 11.1 0 12.55 1.5 L 12.5 1.5 Q 14 3 14 5 Q 14 7.15 12.5 8.6 L 12.5 8.55 Q 11.05 10 9 10 Q 6.9 10 5.45 8.55 Z " fill="rgb(0,0,0)"/><path d=" M 11 12 Q 12.2 12 13.1 12.9 Q 14 13.8 14 15 L 14 28 L 15 28 Q 16.2 28 17.1 28.9 Q 18 29.8 18 31 L 18 33 L 17.7 33.7 L 17 34 L 1 34 Q 0.6 34 0.3 33.7 Q 0 33.4 0 33 L 0 31.05 Q 0 29.8 0.85 28.95 L 0.85 28.9 Q 1.75 28 3 28 L 4 28 L 4 18 L 1 18 Q 0.6 18 0.3 17.7 Q 0 17.4 0 17 L 0 13 Q 0 12.6 0.3 12.3 Q 0.6 12 1 12 L 11 12 Z " fill="rgb(0,0,0)"/></g></svg>