<?xml version="1.0" standalone="no"?><!-- Generator: Gravit.io --><svg xmlns="http://www.w3.org/2000/svg" xmlns:xlink="http://www.w3.org/1999/xlink" style="isolation:isolate" viewBox="0 0 47 47" width="47" height="47"><defs><clipPath id="_clipPath_vZtgIkIbjgOQUX720RQspwAektocSL4k"><rect width="47" height="47"/></clipPath></defs><g clip-path="url(#_clipPath_vZtgIkIbjgOQUX720RQspwAektocSL4k)"><path d=" M 6.9 6.85 Q 13.75 0 23.5 0 Q 33.05 0 39.9 6.6 L 40.15 6.85 Q 47 13.7 47 23.45 Q 47 32.85 40.75 39.55 L 40.7 39.6 L 40.4 39.9 L 40.35 39.95 L 40.4 39.85 L 40.15 40.1 L 40.05 40.2 L 40.15 40.15 Q 33.2 47 23.5 47 Q 13.75 47 6.9 40.15 L 6.25 39.45 Q 0 32.8 0 23.45 Q 0 13.95 6.6 7.25 L 6.9 6.85 Z  M 38.05 9 L 38 9 Q 32 3 23.5 3 Q 15 3 9.05 9 Q 3 14.95 3 23.45 Q 3 31.6 8.45 37.4 L 9.05 38.05 Q 15 44 23.5 44 Q 32 44 38 38.05 L 38.25 37.8 L 38.55 37.5 Q 44 31.65 44 23.45 Q 44 14.95 38.05 9 Z " fill="rgb(194,176,137)"/><path d=" M 23.5 6 Q 30.75 6 35.9 11.1 Q 41 16.2 41 23.45 Q 41 30.45 36.35 35.45 L 35.9 35.9 Q 30.75 41 23.5 41 Q 16.25 41 11.15 35.9 L 10.7 35.4 Q 6 30.45 6 23.45 Q 6 16.2 11.15 11.1 Q 16.25 6 23.5 6 Z  M 30.5 19 L 30.4 19 L 30.4 19.05 L 16.85 19.05 L 16.85 19 L 16.7 19 L 16.5 19.05 Q 15.15 19.1 14.1 20.1 Q 13 21.25 13 22.8 Q 13 24.35 14.1 25.45 Q 15.2 26.55 16.7 26.6 L 16.85 26.6 L 30.4 26.6 L 30.5 26.6 L 30.65 26.6 Q 32.1 26.55 33.2 25.45 Q 34.35 24.35 34.35 22.8 Q 34.35 21.25 33.2 20.1 Q 32.25 19.2 31.1 19.05 L 30.5 19 Z  M 23.65 30.95 Q 21.9 30.95 20.7 30 Q 20 29.5 19.75 28.8 L 19.4 28.35 L 18.75 28.3 Q 18.45 28.35 18.35 28.65 L 18.25 29.25 Q 18.55 30.35 19.7 31.2 Q 21.35 32.5 23.65 32.5 Q 25.95 32.5 27.55 31.2 Q 28.6 30.35 29.05 29.35 L 29.05 28.7 L 28.6 28.3 Q 28.3 28.15 28 28.3 Q 27.65 28.45 27.6 28.75 Q 27.3 29.45 26.6 30 Q 25.35 30.95 23.65 30.95 Z " fill="rgb(224,209,175)"/><path d=" M 38.05 9 Q 44 14.95 44 23.45 Q 44 31.65 38.55 37.5 L 38.25 37.8 L 38 38.05 Q 32 44 23.5 44 Q 15 44 9.05 38.05 L 8.45 37.4 Q 3 31.6 3 23.45 Q 3 14.95 9.05 9 Q 15 3 23.5 3 Q 32 3 38 9 L 38.05 9 Z  M 23.5 6 Q 16.25 6 11.15 11.1 Q 6 16.2 6 23.45 Q 6 30.45 10.7 35.4 L 11.15 35.9 Q 16.25 41 23.5 41 Q 30.75 41 35.9 35.9 L 36.35 35.45 Q 41 30.45 41 23.45 Q 41 16.2 35.9 11.1 Q 30.75 6 23.5 6 Z " fill="rgb(236,226,205)"/><path d=" M 23.65 30.95 Q 25.35 30.95 26.6 30 Q 27.3 29.45 27.6 28.75 Q 27.65 28.45 28 28.3 Q 28.3 28.15 28.6 28.3 L 29.05 28.7 L 29.05 29.35 Q 28.6 30.35 27.55 31.2 Q 25.95 32.5 23.65 32.5 Q 21.35 32.5 19.7 31.2 Q 18.55 30.35 18.25 29.25 L 18.35 28.65 Q 18.45 28.35 18.75 28.3 L 19.4 28.35 L 19.75 28.8 Q 20 29.5 20.7 30 Q 21.9 30.95 23.65 30.95 Z  M 30.5 19 L 31.1 19.05 Q 32.25 19.2 33.2 20.1 Q 34.35 21.25 34.35 22.8 Q 34.35 24.35 33.2 25.45 Q 32.1 26.55 30.65 26.6 L 30.5 26.6 L 30.4 26.6 L 16.85 26.6 L 16.7 26.6 Q 15.2 26.55 14.1 25.45 Q 13 24.35 13 22.8 Q 13 21.25 14.1 20.1 Q 15.15 19.1 16.5 19.05 L 16.7 19 L 16.85 19 L 16.85 19.05 L 30.4 19.05 L 30.4 19 L 30.5 19 Z " fill="rgb(175,159,122)"/></g></svg>