<?xml version="1.0" standalone="no"?><!-- Generator: Gravit.io --><svg xmlns="http://www.w3.org/2000/svg" xmlns:xlink="http://www.w3.org/1999/xlink" style="isolation:isolate" viewBox="0 0 47 47" width="47" height="47"><defs><clipPath id="_clipPath_L8QYJZTfjDJRadox0EacjxZYFrE6Ohub"><rect width="47" height="47"/></clipPath></defs><g clip-path="url(#_clipPath_L8QYJZTfjDJRadox0EacjxZYFrE6Ohub)"><path d=" M 14.6 21.9 Q 14.6 22.9 15.25 23.55 Q 16 24.25 16.95 24.25 Q 17.95 24.25 18.6 23.55 Q 19.35 22.9 19.35 21.9 Q 19.35 20.95 18.6 20.25 Q 17.95 19.55 16.95 19.55 Q 16 19.55 15.25 20.25 Q 14.6 20.95 14.6 21.9 Z  M 6 23.45 Q 6 16.2 11.15 11.1 Q 16.25 6 23.5 6 Q 30.75 6 35.9 11.1 Q 41 16.2 41 23.45 Q 41 30.45 36.35 35.45 L 35.9 35.9 Q 30.75 41 23.5 41 Q 16.25 41 11.15 35.9 L 10.7 35.4 Q 6 30.45 6 23.45 Z  M 29.3 20.25 Q 28.65 20.95 28.65 21.9 Q 28.65 22.9 29.3 23.55 Q 30 24.25 31.05 24.25 Q 31.95 24.25 32.65 23.55 Q 33.35 22.9 33.35 21.9 Q 33.35 20.95 32.65 20.25 Q 31.95 19.55 31.05 19.55 Q 30 19.55 29.3 20.25 Z  M 21.65 17.9 Q 21.65 18.9 22.3 19.55 Q 23 20.25 24.05 20.25 Q 24.95 20.25 25.65 19.55 Q 26.35 18.9 26.35 17.9 Q 26.35 16.95 25.65 16.25 Q 24.95 15.55 24.05 15.55 Q 23 15.55 22.3 16.25 Q 21.65 16.95 21.65 17.9 Z  M 27.85 31.05 L 27.55 30.35 Q 27.25 30.05 26.85 30.05 L 21 30.05 Q 20.6 30.05 20.3 30.35 Q 20 30.65 20 31.05 Q 20 31.45 20.3 31.75 L 21 32.05 L 26.85 32.05 Q 27.25 32.05 27.55 31.75 L 27.85 31.05 Z " fill="rgb(141,181,231)"/><path d=" M 9.05 9 Q 15 3 23.5 3 Q 32 3 38 9 L 38.05 9 Q 44 14.95 44 23.45 Q 44 31.65 38.55 37.5 L 38.25 37.8 L 38 38.05 Q 32 44 23.5 44 Q 15 44 9.05 38.05 L 8.45 37.4 Q 3 31.6 3 23.45 Q 3 14.95 9.05 9 Z  M 6 23.45 Q 6 30.45 10.7 35.4 L 11.15 35.9 Q 16.25 41 23.5 41 Q 30.75 41 35.9 35.9 L 36.35 35.45 Q 41 30.45 41 23.45 Q 41 16.2 35.9 11.1 Q 30.75 6 23.5 6 Q 16.25 6 11.15 11.1 Q 6 16.2 6 23.45 Z " fill="rgb(169,208,255)"/><path d=" M 9.05 9 Q 3 14.95 3 23.45 Q 3 31.6 8.45 37.4 L 9.05 38.05 Q 15 44 23.5 44 Q 32 44 38 38.05 L 38.25 37.8 L 38.55 37.5 Q 44 31.65 44 23.45 Q 44 14.95 38.05 9 L 38 9 Q 32 3 23.5 3 Q 15 3 9.05 9 Z  M 6.6 7.25 L 6.9 6.85 Q 13.75 0 23.5 0 Q 33.05 0 39.9 6.6 L 40.15 6.85 Q 47 13.7 47 23.45 Q 47 32.85 40.75 39.55 L 40.7 39.6 L 40.4 39.9 L 40.35 39.95 L 40.4 39.85 L 40.15 40.1 L 40.05 40.2 L 40.15 40.15 Q 33.2 47 23.5 47 Q 13.75 47 6.9 40.15 L 6.25 39.45 Q 0 32.8 0 23.45 Q 0 13.95 6.6 7.25 Z " fill="rgb(116,148,190)"/><path d=" M 14.6 21.9 Q 14.6 20.95 15.25 20.25 Q 16 19.55 16.95 19.55 Q 17.95 19.55 18.6 20.25 Q 19.35 20.95 19.35 21.9 Q 19.35 22.9 18.6 23.55 Q 17.95 24.25 16.95 24.25 Q 16 24.25 15.25 23.55 Q 14.6 22.9 14.6 21.9 Z  M 21.65 17.9 Q 21.65 16.95 22.3 16.25 Q 23 15.55 24.05 15.55 Q 24.95 15.55 25.65 16.25 Q 26.35 16.95 26.35 17.9 Q 26.35 18.9 25.65 19.55 Q 24.95 20.25 24.05 20.25 Q 23 20.25 22.3 19.55 Q 21.65 18.9 21.65 17.9 Z  M 29.3 20.25 Q 30 19.55 31.05 19.55 Q 31.95 19.55 32.65 20.25 Q 33.35 20.95 33.35 21.9 Q 33.35 22.9 32.65 23.55 Q 31.95 24.25 31.05 24.25 Q 30 24.25 29.3 23.55 Q 28.65 22.9 28.65 21.9 Q 28.65 20.95 29.3 20.25 Z  M 27.85 31.05 L 27.55 31.75 Q 27.25 32.05 26.85 32.05 L 21 32.05 L 20.3 31.75 Q 20 31.45 20 31.05 Q 20 30.65 20.3 30.35 Q 20.6 30.05 21 30.05 L 26.85 30.05 Q 27.25 30.05 27.55 30.35 L 27.85 31.05 Z " fill="rgb(79,113,157)"/></g></svg>