<?xml version="1.0" standalone="no"?><!-- Generator: Gravit.io --><svg xmlns="http://www.w3.org/2000/svg" xmlns:xlink="http://www.w3.org/1999/xlink" style="isolation:isolate" viewBox="0 0 47 47" width="47" height="47"><defs><clipPath id="_clipPath_S6j33y0A0AICPi3oWrtiyWNk1dkdFgad"><rect width="47" height="47"/></clipPath></defs><g clip-path="url(#_clipPath_S6j33y0A0AICPi3oWrtiyWNk1dkdFgad)"><path d=" M 6.6 7.25 L 6.9 6.85 Q 13.75 0 23.5 0 Q 33.05 0 39.9 6.6 L 40.15 6.85 Q 47 13.7 47 23.45 Q 47 32.85 40.75 39.55 L 40.7 39.6 L 40.4 39.9 L 40.35 39.95 L 40.4 39.85 L 40.15 40.1 L 40.05 40.2 L 40.15 40.15 Q 33.2 47 23.5 47 Q 13.75 47 6.9 40.15 L 6.25 39.45 Q 0 32.8 0 23.45 Q 0 13.95 6.6 7.25 Z  M 9.05 9 Q 3 14.95 3 23.45 Q 3 31.6 8.45 37.4 L 9.05 38.05 Q 15 44 23.5 44 Q 32 44 38 38.05 L 38.25 37.8 L 38.55 37.5 Q 44 31.65 44 23.45 Q 44 14.95 38.05 9 L 38 9 Q 32 3 23.5 3 Q 15 3 9.05 9 Z " fill="rgb(91,161,139)"/><path d=" M 9.05 9 Q 15 3 23.5 3 Q 32 3 38 9 L 38.05 9 Q 44 14.95 44 23.45 Q 44 31.65 38.55 37.5 L 38.25 37.8 L 38 38.05 Q 32 44 23.5 44 Q 15 44 9.05 38.05 L 8.45 37.4 Q 3 31.6 3 23.45 Q 3 14.95 9.05 9 Z  M 6 23.45 Q 6 30.45 10.7 35.4 L 11.15 35.9 Q 16.25 41 23.5 41 Q 30.75 41 35.9 35.9 L 36.35 35.45 Q 41 30.45 41 23.45 Q 41 16.2 35.9 11.1 Q 30.75 6 23.5 6 Q 16.25 6 11.15 11.1 Q 6 16.2 6 23.45 Z " fill="rgb(138,224,197)"/><path d=" M 6 23.45 Q 6 16.2 11.15 11.1 Q 16.25 6 23.5 6 Q 30.75 6 35.9 11.1 Q 41 16.2 41 23.45 Q 41 30.45 36.35 35.45 L 35.9 35.9 Q 30.75 41 23.5 41 Q 16.25 41 11.15 35.9 L 10.7 35.4 Q 6 30.45 6 23.45 Z  M 14.1 19.15 Q 13 20.35 13 21.95 Q 13 23.55 14.1 24.65 Q 15.3 25.85 16.95 25.85 Q 18.55 25.85 19.7 24.65 Q 20.9 23.55 20.9 21.95 Q 20.9 20.35 19.7 19.15 Q 18.55 18 16.95 18 Q 15.3 18 14.1 19.15 Z  M 19.6 27.7 L 18.9 27.65 Q 18.6 27.7 18.5 28.05 Q 18.3 28.3 18.4 28.65 Q 18.7 29.8 19.9 30.65 Q 21.55 32 23.95 32 Q 26.3 32 27.95 30.65 Q 29.05 29.8 29.5 28.7 L 29.5 28.05 L 29.05 27.65 Q 28.75 27.5 28.4 27.65 L 28 28.1 Q 27.7 28.85 27 29.45 Q 25.7 30.4 23.95 30.4 Q 22.15 30.4 20.9 29.45 Q 20.2 28.85 19.95 28.15 L 19.6 27.7 Z  M 34.95 21.95 Q 34.95 20.35 33.75 19.15 Q 32.6 18 31.05 18 Q 29.35 18 28.15 19.15 Q 27.05 20.35 27.05 21.95 Q 27.05 23.55 28.15 24.65 Q 29.35 25.85 31.05 25.85 Q 32.6 25.85 33.75 24.65 Q 34.95 23.55 34.95 21.95 Z " fill="rgb(111,196,169)"/><path d=" M 34.95 21.95 Q 34.95 23.55 33.75 24.65 Q 32.6 25.85 31.05 25.85 Q 29.35 25.85 28.15 24.65 Q 27.05 23.55 27.05 21.95 Q 27.05 20.35 28.15 19.15 Q 29.35 18 31.05 18 Q 32.6 18 33.75 19.15 Q 34.95 20.35 34.95 21.95 Z  M 14.1 19.15 Q 15.3 18 16.95 18 Q 18.55 18 19.7 19.15 Q 20.9 20.35 20.9 21.95 Q 20.9 23.55 19.7 24.65 Q 18.55 25.85 16.95 25.85 Q 15.3 25.85 14.1 24.65 Q 13 23.55 13 21.95 Q 13 20.35 14.1 19.15 Z  M 19.6 27.7 L 19.95 28.15 Q 20.2 28.85 20.9 29.45 Q 22.15 30.4 23.95 30.4 Q 25.7 30.4 27 29.45 Q 27.7 28.85 28 28.1 L 28.4 27.65 Q 28.75 27.5 29.05 27.65 L 29.5 28.05 L 29.5 28.7 Q 29.05 29.8 27.95 30.65 Q 26.3 32 23.95 32 Q 21.55 32 19.9 30.65 Q 18.7 29.8 18.4 28.65 Q 18.3 28.3 18.5 28.05 Q 18.6 27.7 18.9 27.65 L 19.6 27.7 Z " fill="rgb(52,126,103)"/></g></svg>