<?xml version="1.0" standalone="no"?><!-- Generator: Gravit.io --><svg xmlns="http://www.w3.org/2000/svg" xmlns:xlink="http://www.w3.org/1999/xlink" style="isolation:isolate" viewBox="0 0 47 47" width="47" height="47"><defs><clipPath id="_clipPath_fX3aoIFIu06JMth1rRSKhBKldpxZOUR2"><rect width="47" height="47"/></clipPath></defs><g clip-path="url(#_clipPath_fX3aoIFIu06JMth1rRSKhBKldpxZOUR2)"><path d=" M 6.6 7.25 L 6.9 6.85 Q 13.75 0 23.5 0 Q 33.05 0 39.9 6.6 L 40.15 6.85 Q 47 13.7 47 23.45 Q 47 32.85 40.75 39.55 L 40.7 39.6 L 40.4 39.9 L 40.35 39.95 L 40.4 39.85 L 40.15 40.1 L 40.05 40.2 L 40.15 40.15 Q 33.2 47 23.5 47 Q 13.75 47 6.9 40.15 L 6.25 39.45 Q 0 32.8 0 23.45 Q 0 13.95 6.6 7.25 Z  M 9.05 9 Q 3 14.95 3 23.45 Q 3 31.6 8.45 37.4 L 9.05 38.05 Q 15 44 23.5 44 Q 32 44 38 38.05 L 38.25 37.8 L 38.55 37.5 Q 44 31.65 44 23.45 Q 44 14.95 38.05 9 L 38 9 Q 32 3 23.5 3 Q 15 3 9.05 9 Z " fill="rgb(215,172,0)"/><path d=" M 9.05 9 Q 15 3 23.5 3 Q 32 3 38 9 L 38.05 9 Q 44 14.95 44 23.45 Q 44 31.65 38.55 37.5 L 38.25 37.8 L 38 38.05 Q 32 44 23.5 44 Q 15 44 9.05 38.05 L 8.45 37.4 Q 3 31.6 3 23.45 Q 3 14.95 9.05 9 Z  M 6 23.45 Q 6 30.45 10.7 35.4 L 11.15 35.9 Q 16.25 41 23.5 41 Q 30.75 41 35.9 35.9 L 36.35 35.45 Q 41 30.45 41 23.45 Q 41 16.2 35.9 11.1 Q 30.75 6 23.5 6 Q 16.25 6 11.15 11.1 Q 6 16.2 6 23.45 Z " fill="rgb(255,219,77)"/><path d=" M 6 23.45 Q 6 16.2 11.15 11.1 Q 16.25 6 23.5 6 Q 30.75 6 35.9 11.1 Q 41 16.2 41 23.45 Q 41 30.45 36.35 35.45 L 35.9 35.9 Q 30.75 41 23.5 41 Q 16.25 41 11.15 35.9 L 10.7 35.4 Q 6 30.45 6 23.45 Z  M 12 23 L 12 23.3 Q 12 25 13.15 26.15 Q 14.4 27.4 16.15 27.4 Q 17.85 27.4 19.05 26.15 Q 20.3 25 20.3 23.3 L 20.3 23 L 12 23 Z  M 35.15 23 L 26.85 23 L 26.8 23.3 Q 26.8 25 27.95 26.15 Q 29.25 27.4 31 27.4 Q 32.65 27.4 33.85 26.15 Q 35.15 25 35.15 23.3 L 35.15 23 Z  M 29.4 29.7 Q 29.2 29.4 28.9 29.3 Q 28.55 29.15 28.2 29.3 L 27.8 29.75 Q 27.45 30.5 26.7 31.15 Q 25.4 32.15 23.55 32.15 Q 21.6 32.15 20.3 31.15 Q 19.55 30.55 19.3 29.8 L 18.95 29.35 L 18.2 29.25 Q 17.9 29.35 17.75 29.7 L 17.65 30.3 Q 18 31.5 19.25 32.45 Q 21 33.8 23.55 33.8 Q 26 33.8 27.75 32.45 Q 28.9 31.5 29.4 30.4 L 29.4 29.7 Z " fill="rgb(255,204,0)"/><path d=" M 29.4 29.7 L 29.4 30.4 Q 28.9 31.5 27.75 32.45 Q 26 33.8 23.55 33.8 Q 21 33.8 19.25 32.45 Q 18 31.5 17.65 30.3 L 17.75 29.7 Q 17.9 29.35 18.2 29.25 L 18.95 29.35 L 19.3 29.8 Q 19.55 30.55 20.3 31.15 Q 21.6 32.15 23.55 32.15 Q 25.4 32.15 26.7 31.15 Q 27.45 30.5 27.8 29.75 L 28.2 29.3 Q 28.55 29.15 28.9 29.3 Q 29.2 29.4 29.4 29.7 Z  M 12 23 L 20.3 23 L 20.3 23.3 Q 20.3 25 19.05 26.15 Q 17.85 27.4 16.15 27.4 Q 14.4 27.4 13.15 26.15 Q 12 25 12 23.3 L 12 23 Z  M 35.15 23 L 35.15 23.3 Q 35.15 25 33.85 26.15 Q 32.65 27.4 31 27.4 Q 29.25 27.4 27.95 26.15 Q 26.8 25 26.8 23.3 L 26.85 23 L 35.15 23 Z " fill="rgb(173,138,0)"/></g></svg>