<?xml version="1.0" standalone="no"?><!-- Generator: Gravit.io --><svg xmlns="http://www.w3.org/2000/svg" xmlns:xlink="http://www.w3.org/1999/xlink" style="isolation:isolate" viewBox="0 0 47 47" width="47" height="47"><defs><clipPath id="_clipPath_xC1XgviL1ivNsDkjHU6v5xkiTWRLZ8ec"><rect width="47" height="47"/></clipPath></defs><g clip-path="url(#_clipPath_xC1XgviL1ivNsDkjHU6v5xkiTWRLZ8ec)"><path d=" M 6.6 7.25 L 6.9 6.85 Q 13.75 0 23.5 0 Q 33.05 0 39.9 6.6 L 40.15 6.85 Q 47 13.7 47 23.45 Q 47 32.85 40.75 39.55 L 40.7 39.6 L 40.4 39.9 L 40.35 39.95 L 40.4 39.85 L 40.15 40.1 L 40.05 40.2 L 40.15 40.15 Q 33.2 47 23.5 47 Q 13.75 47 6.9 40.15 L 6.25 39.45 Q 0 32.8 0 23.45 Q 0 13.95 6.6 7.25 Z  M 9.05 9 Q 3 14.95 3 23.45 Q 3 31.6 8.45 37.4 L 9.05 38.05 Q 15 44 23.5 44 Q 32 44 38 38.05 L 38.25 37.8 L 38.55 37.5 Q 44 31.65 44 23.45 Q 44 14.95 38.05 9 L 38 9 Q 32 3 23.5 3 Q 15 3 9.05 9 Z " fill="rgb(198,128,150)"/><path d=" M 9.05 9 Q 15 3 23.5 3 Q 32 3 38 9 L 38.05 9 Q 44 14.95 44 23.45 Q 44 31.65 38.55 37.5 L 38.25 37.8 L 38 38.05 Q 32 44 23.5 44 Q 15 44 9.05 38.05 L 8.45 37.4 Q 3 31.6 3 23.45 Q 3 14.95 9.05 9 Z  M 6 23.45 Q 6 30.45 10.7 35.4 L 11.15 35.9 Q 16.25 41 23.5 41 Q 30.75 41 35.9 35.9 L 36.35 35.45 Q 41 30.45 41 23.45 Q 41 16.2 35.9 11.1 Q 30.75 6 23.5 6 Q 16.25 6 11.15 11.1 Q 6 16.2 6 23.45 Z " fill="rgb(255,183,210)"/><path d=" M 6 23.45 Q 6 16.2 11.15 11.1 Q 16.25 6 23.5 6 Q 30.75 6 35.9 11.1 Q 41 16.2 41 23.45 Q 41 30.45 36.35 35.45 L 35.9 35.9 Q 30.75 41 23.5 41 Q 16.25 41 11.15 35.9 L 10.7 35.4 Q 6 30.45 6 23.45 Z  M 19.75 15.8 Q 18.1 17.6 18.1 20 L 18.2 21 Q 18.45 22.75 19.75 24.05 Q 21.55 25.85 24.1 25.85 Q 26.4 25.85 28.15 24.05 Q 29.55 22.75 29.9 21 L 29.95 20 Q 29.95 17.6 28.15 15.8 Q 26.4 14.05 24.1 14.05 Q 21.55 14.05 19.75 15.8 Z  M 29 29.65 Q 28.7 29.5 28.4 29.65 L 28 30.1 L 27.45 31.05 L 27 31.45 Q 25.7 32.4 23.95 32.4 Q 22.15 32.4 20.9 31.45 L 20.55 31.1 L 19.95 30.15 L 19.6 29.7 L 18.9 29.65 Q 18.6 29.7 18.5 30.05 Q 18.3 30.3 18.4 30.65 Q 18.7 31.8 19.9 32.65 Q 21.55 34 23.95 34 Q 26.3 34 27.95 32.65 Q 29.05 31.8 29.5 30.7 L 29.5 30.05 L 29.05 29.65 L 29 29.65 Z " fill="rgb(241,156,183)"/><path d=" M 19.75 15.8 Q 21.55 14.05 24.1 14.05 Q 26.4 14.05 28.15 15.8 Q 29.95 17.6 29.95 20 L 29.9 21 Q 29.55 22.75 28.15 24.05 Q 26.4 25.85 24.1 25.85 Q 21.55 25.85 19.75 24.05 Q 18.45 22.75 18.2 21 L 18.1 20 Q 18.1 17.6 19.75 15.8 Z  M 21.15 22.65 Q 22.35 23.85 24.05 23.85 Q 25.6 23.85 26.75 22.65 Q 27.95 21.55 27.95 19.95 Q 27.95 18.35 26.75 17.15 Q 25.6 16 24.05 16 Q 22.35 16 21.15 17.15 Q 20.05 18.35 20.05 19.95 Q 20.05 21.55 21.15 22.65 Z " fill="rgb(255,255,255)"/><path d=" M 21.15 22.65 Q 20.05 21.55 20.05 19.95 Q 20.05 18.35 21.15 17.15 Q 22.35 16 24.05 16 Q 25.6 16 26.75 17.15 Q 27.95 18.35 27.95 19.95 Q 27.95 21.55 26.75 22.65 Q 25.6 23.85 24.05 23.85 Q 22.35 23.85 21.15 22.65 Z  M 29 29.65 L 29.05 29.65 L 29.5 30.05 L 29.5 30.7 Q 29.05 31.8 27.95 32.65 Q 26.3 34 23.95 34 Q 21.55 34 19.9 32.65 Q 18.7 31.8 18.4 30.65 Q 18.3 30.3 18.5 30.05 Q 18.6 29.7 18.9 29.65 L 19.6 29.7 L 19.95 30.15 L 20.55 31.1 L 20.9 31.45 Q 22.15 32.4 23.95 32.4 Q 25.7 32.4 27 31.45 L 27.45 31.05 L 28 30.1 L 28.4 29.65 Q 28.7 29.5 29 29.65 Z " fill="rgb(165,91,114)"/></g></svg>